<?xml version="1.0" encoding="UTF-8"?>
<svg version="1.1" xmlns="http://www.w3.org/2000/svg" width="192" height="192">
<path d="M0 0 C1.14984375 -0.00386719 2.2996875 -0.00773438 3.484375 -0.01171875 C9.09329586 -0.00525686 14.47781053 0.11366879 20 1.125 C20 1.785 20 2.445 20 3.125 C21.7325 3.2796875 21.7325 3.2796875 23.5 3.4375 C31.16848428 4.40785302 38.02893885 7.94606702 45 11.125 C45 11.785 45 12.445 45 13.125 C45.88816406 13.36734375 46.77632812 13.6096875 47.69140625 13.859375 C51.26962963 15.22814049 53.18037376 16.74746316 55.9375 19.375 C58.87681728 22.13724997 61.80874094 24.8295689 64.9375 27.375 C67.63429872 29.66473476 69.46958232 31.88411551 71 35.125 C71 35.785 71 36.445 71 37.125 C71.99 37.455 72.98 37.785 74 38.125 C74.33 39.775 74.66 41.425 75 43.125 C75.66 43.125 76.32 43.125 77 43.125 C79.03435531 46.85465139 80 48.79405042 80 53.125 C80.66 53.125 81.32 53.125 82 53.125 C82.27714844 54.12402344 82.55429688 55.12304688 82.83984375 56.15234375 C83.20555549 57.45577791 83.57145038 58.75916069 83.9375 60.0625 C84.21110352 61.0515332 84.21110352 61.0515332 84.49023438 62.06054688 C85.22596101 65.36321173 85.22596101 65.36321173 87 68.125 C88.33469886 74.74209856 88.14762013 81.39928096 88.125 88.125 C88.12886719 89.27484375 88.13273438 90.4246875 88.13671875 91.609375 C88.11916215 106.84850438 83.99378938 119.55640402 77 133.125 C76.34 133.125 75.68 133.125 75 133.125 C74.67 134.775 74.34 136.425 74 138.125 C73.01 138.455 72.02 138.785 71 139.125 C70.731875 139.82625 70.46375 140.5275 70.1875 141.25 C66.27251653 150.72838103 55.75891654 158.39368782 47 163.125 C46.34 163.125 45.68 163.125 45 163.125 C45 163.785 45 164.445 45 165.125 C38.375 168.125 38.375 168.125 35 168.125 C35 168.785 35 169.445 35 170.125 C33.44033782 170.633783 31.87710759 171.13163469 30.3125 171.625 C29.00732422 172.04265625 29.00732422 172.04265625 27.67578125 172.46875 C25.00608323 173.12350805 22.73603316 173.24331495 20 173.125 C20 173.785 20 174.445 20 175.125 C13.34257144 176.34423837 6.75247495 176.27271012 0 176.25 C-1.14984375 176.25386719 -2.2996875 176.25773438 -3.484375 176.26171875 C-9.09329586 176.25525686 -14.47781053 176.13633121 -20 175.125 C-20 174.465 -20 173.805 -20 173.125 C-21.7325 172.9703125 -21.7325 172.9703125 -23.5 172.8125 C-31.16848428 171.84214698 -38.02893885 168.30393298 -45 165.125 C-45 164.465 -45 163.805 -45 163.125 C-46.33224609 162.76148438 -46.33224609 162.76148438 -47.69140625 162.390625 C-51.26962963 161.02185951 -53.18037376 159.50253684 -55.9375 156.875 C-58.87681728 154.11275003 -61.80874094 151.4204311 -64.9375 148.875 C-67.63429872 146.58526524 -69.46958232 144.36588449 -71 141.125 C-71 140.465 -71 139.805 -71 139.125 C-71.99 138.795 -72.98 138.465 -74 138.125 C-74.33 136.475 -74.66 134.825 -75 133.125 C-75.66 133.125 -76.32 133.125 -77 133.125 C-79.03435531 129.39534861 -80 127.45594958 -80 123.125 C-80.66 123.125 -81.32 123.125 -82 123.125 C-82.27714844 122.12597656 -82.55429688 121.12695312 -82.83984375 120.09765625 C-83.20555549 118.79422209 -83.57145038 117.49083931 -83.9375 116.1875 C-84.11990234 115.52814453 -84.30230469 114.86878906 -84.49023438 114.18945312 C-85.22596101 110.88678827 -85.22596101 110.88678827 -87 108.125 C-88.33469886 101.50790144 -88.14762013 94.85071904 -88.125 88.125 C-88.12886719 86.97515625 -88.13273437 85.8253125 -88.13671875 84.640625 C-88.11916215 69.40149562 -83.99378938 56.69359598 -77 43.125 C-76.34 43.125 -75.68 43.125 -75 43.125 C-74.67 41.475 -74.34 39.825 -74 38.125 C-72.515 37.63 -72.515 37.63 -71 37.125 C-70.731875 36.42375 -70.46375 35.7225 -70.1875 35 C-66.27251653 25.52161897 -55.75891654 17.85631218 -47 13.125 C-46.34 13.125 -45.68 13.125 -45 13.125 C-45 12.465 -45 11.805 -45 11.125 C-38.375 8.125 -38.375 8.125 -35 8.125 C-35 7.465 -35 6.805 -35 6.125 C-33.44033782 5.616217 -31.87710759 5.11836531 -30.3125 4.625 C-29.44238281 4.3465625 -28.57226562 4.068125 -27.67578125 3.78125 C-25.00608323 3.12649195 -22.73603316 3.00668505 -20 3.125 C-20 2.465 -20 1.805 -20 1.125 C-13.34257144 -0.09423837 -6.75247495 -0.02271012 0 0 Z M-17 21.125 C-18.95426271 21.68117398 -20.91253849 22.22348594 -22.875 22.75 C-24.32519531 23.14058594 -24.32519531 23.14058594 -25.8046875 23.5390625 C-26.52914062 23.73242188 -27.25359375 23.92578125 -28 24.125 C-28 24.785 -28 25.445 -28 26.125 C-28.7425 26.24875 -29.485 26.3725 -30.25 26.5 C-32.80141485 27.07986701 -34.7267573 27.86208739 -37 29.125 C-37 29.785 -37 30.445 -37 31.125 C-38.0828125 31.49044922 -38.0828125 31.49044922 -39.1875 31.86328125 C-46.67007645 35.22004818 -52.77356966 42.22183045 -57 49.125 C-57 49.785 -57 50.445 -57 51.125 C-57.66 51.125 -58.32 51.125 -59 51.125 C-63.55627419 59.72174376 -67.49826748 67.15965043 -67 77.125 C-67.66 77.125 -68.32 77.125 -69 77.125 C-69.05841253 80.66659657 -69.09373452 84.20806793 -69.125 87.75 C-69.14175781 88.74902344 -69.15851563 89.74804688 -69.17578125 90.77734375 C-69.2103781 96.00146875 -69.0335012 100.22980802 -67 105.125 C-66.55850821 106.70722492 -66.12083859 108.29052269 -65.6875 109.875 C-64.08902581 115.29662896 -61.67252755 120.1602255 -59 125.125 C-58.34 125.125 -57.68 125.125 -57 125.125 C-56.74476562 125.85847656 -56.48953125 126.59195313 -56.2265625 127.34765625 C-52.96666594 134.72914177 -45.85870888 141.01943482 -39 145.125 C-38.34 145.125 -37.68 145.125 -37 145.125 C-36.67 146.115 -36.34 147.105 -36 148.125 C-29.00405054 152.45962016 -19.23619967 155.77522629 -11 155.125 C-11 155.785 -11 156.445 -11 157.125 C-7.45840343 157.18341253 -3.91693207 157.21873452 -0.375 157.25 C1.12353516 157.27513672 1.12353516 157.27513672 2.65234375 157.30078125 C7.88440316 157.33543065 12.0953561 157.14455925 17 155.125 C18.95426271 154.56882602 20.91253849 154.02651406 22.875 153.5 C23.84179688 153.23960937 24.80859375 152.97921875 25.8046875 152.7109375 C26.52914062 152.51757812 27.25359375 152.32421875 28 152.125 C28 151.465 28 150.805 28 150.125 C29.11375 149.939375 29.11375 149.939375 30.25 149.75 C32.80141485 149.17013299 34.7267573 148.38791261 37 147.125 C37 146.465 37 145.805 37 145.125 C37.721875 144.88136719 38.44375 144.63773437 39.1875 144.38671875 C46.67007645 141.02995182 52.77356966 134.02816955 57 127.125 C57 126.465 57 125.805 57 125.125 C57.66 125.125 58.32 125.125 59 125.125 C63.55627419 116.52825624 67.49826748 109.09034957 67 99.125 C67.66 99.125 68.32 99.125 69 99.125 C69.05841253 95.58340343 69.09373452 92.04193207 69.125 88.5 C69.15013672 87.00146484 69.15013672 87.00146484 69.17578125 85.47265625 C69.2103781 80.24853125 69.0335012 76.02019198 67 71.125 C66.55850821 69.54277508 66.12083859 67.95947731 65.6875 66.375 C64.08902581 60.95337104 61.67252755 56.0897745 59 51.125 C58.34 51.125 57.68 51.125 57 51.125 C56.74476563 50.39152344 56.48953125 49.65804687 56.2265625 48.90234375 C52.96666594 41.52085823 45.85870888 35.23056518 39 31.125 C38.34 31.125 37.68 31.125 37 31.125 C36.505 29.64 36.505 29.64 36 28.125 C29.00405054 23.79037984 19.23619967 20.47477371 11 21.125 C11 20.465 11 19.805 11 19.125 C7.45840343 19.06658747 3.91693207 19.03126548 0.375 19 C-1.12353516 18.97486328 -1.12353516 18.97486328 -2.65234375 18.94921875 C-7.88440316 18.91456935 -12.0953561 19.10544075 -17 21.125 Z " fill="#01004A" transform="translate(96,7.875)"/>
<path d="M0 0 C0 0.66 0 1.32 0 2 C0.86625 2.226875 1.7325 2.45375 2.625 2.6875 C9.51610822 5.36737542 12.59273431 9.41965401 16.01953125 15.71875 C17.74168222 19.725667 18.12710435 23.48400833 18.0625 27.8125 C18.05347656 28.60269531 18.04445313 29.39289063 18.03515625 30.20703125 C18.02355469 30.79871094 18.01195312 31.39039063 18 32 C16.515 32.495 16.515 32.495 15 33 C15 33.66 15 34.32 15 35 C10.05 35 5.1 35 0 35 C0 34.34 0 33.68 0 33 C-0.66 33 -1.32 33 -2 33 C-2.6708712 31.3767313 -3.33657029 29.75132422 -4 28.125 C-4.37125 27.22007813 -4.7425 26.31515625 -5.125 25.3828125 C-6 23 -6 23 -6 21 C-6.61875 20.690625 -7.2375 20.38125 -7.875 20.0625 C-9.25 19.375 -10.625 18.6875 -12 18 C-16.8660029 17.46613997 -20.89319297 17.53715342 -25.4375 19.4375 C-31.28774521 25.28774521 -31.38364053 33.09194412 -31.41015625 40.99804688 C-31.39855469 42.17431641 -31.38695313 43.35058594 -31.375 44.5625 C-31.38660156 45.74263672 -31.39820312 46.92277344 -31.41015625 48.13867188 C-31.38782056 54.79098576 -30.96012956 60.00202864 -28 66 C-24.49402349 69.42046489 -21.70242828 70.26023332 -16.9375 70.4375 C-12.87541486 70.26646484 -10.18772178 69.68964025 -7 67 C-5.0549 64.08235 -4.54723683 62.37462715 -4 59 C-3.34 59 -2.68 59 -2 59 C-2 58.01 -2 57.02 -2 56 C1.01861764 54.49069118 4.12991303 54.81561156 7.4375 54.8125 C8.11876953 54.80025391 8.80003906 54.78800781 9.50195312 54.77539062 C13.22829809 54.76444152 14.81991571 54.87994381 18 57 C19.51161397 64.14311698 16.7523614 70.41183142 13.6875 76.6875 C10.04630656 81.6772836 5.94455891 84.44309171 0 86 C0 86.66 0 87.32 0 88 C-5.91276693 89.72007765 -11.44153092 90.21797749 -17.5625 90.25 C-18.27011475 90.25902344 -18.97772949 90.26804687 -19.70678711 90.27734375 C-24.75889074 90.24927976 -29.13947755 89.37778589 -34 88 C-34 87.34 -34 86.68 -34 86 C-34.886875 85.773125 -35.77375 85.54625 -36.6875 85.3125 C-40.518831 83.79442545 -42.28660308 82.07042283 -45 79 C-45.680625 78.2575 -46.36125 77.515 -47.0625 76.75 C-54.14279222 66.70055298 -54.18100001 56.64498399 -54.1875 44.75 C-54.19974609 43.58597656 -54.21199219 42.42195313 -54.22460938 41.22265625 C-54.24546824 28.80467936 -53.10446462 18.15094427 -44.8125 8.4375 C-43 7 -43 7 -41 7 C-40.67 6.01 -40.34 5.02 -40 4 C-36.9375 2.8125 -36.9375 2.8125 -34 2 C-34 1.34 -34 0.68 -34 0 C-22.97523378 -3.14993321 -11.02476622 -3.14993321 0 0 Z " fill="#01004A" transform="translate(114,52)"/>
</svg>
